G04 Layer_Color=65535*
%FSLAX25Y25*%
%MOIN*%
G70*
G01*
G75*
%ADD31C,0.01000*%
%ADD32C,0.00600*%
%ADD50C,0.00394*%
%ADD51C,0.00984*%
%ADD52C,0.02362*%
%ADD53C,0.00787*%
D31*
X26425Y195968D02*
G03*
X26425Y195968I-394J0D01*
G01*
X255000Y195000D02*
Y205000D01*
X175000Y195000D02*
X255000D01*
X175000D02*
Y205000D01*
X255000D01*
X169000Y195000D02*
Y205000D01*
X69000Y195000D02*
X169000D01*
X69000D02*
Y205000D01*
X169000D01*
X210500Y136000D02*
X229500D01*
X210500D02*
Y144000D01*
X229500D01*
X164094Y165094D02*
Y176906D01*
X195591D01*
Y165094D02*
Y176906D01*
X164094Y165094D02*
X195591D01*
X83031Y8032D02*
X86968Y11969D01*
Y8032D02*
X92874D01*
X77126D02*
X83031D01*
X73189Y17087D02*
X96811D01*
X73189Y2913D02*
X96811D01*
X220000Y49600D02*
X242000D01*
X258100D02*
X258101Y49601D01*
X267741D01*
X267740Y49602D02*
X267741Y49601D01*
X267740Y49602D02*
Y113800D01*
X259000D02*
X267740D01*
X240441Y113759D02*
X240500Y113700D01*
X207900Y113759D02*
X240441D01*
X207900Y94500D02*
Y113759D01*
X125000Y5000D02*
X185000D01*
X125000D02*
Y15000D01*
X185000Y5000D02*
Y15000D01*
X125000D02*
X185000D01*
X195000Y5000D02*
X255000D01*
X195000D02*
Y15000D01*
X255000Y5000D02*
Y15000D01*
X195000D02*
X255000D01*
X245031Y160968D02*
X248969Y157032D01*
Y160968D02*
Y166874D01*
Y151126D02*
Y157032D01*
X239913Y147189D02*
Y170811D01*
X254087Y147189D02*
Y170811D01*
X25244Y197937D02*
X30756D01*
X25244Y190063D02*
X30756D01*
X25063Y166339D02*
X32937D01*
X21126Y167126D02*
Y182874D01*
Y167126D02*
X36480D01*
Y182874D01*
X21126D02*
X36480D01*
X85764Y36004D02*
X86000Y36240D01*
X64685Y36004D02*
X85764D01*
X1748Y36240D02*
X48701D01*
X1748Y98760D02*
X1984Y98996D01*
X48937D01*
X64921Y98760D02*
X86000D01*
X1748Y36240D02*
Y98760D01*
X86000Y36240D02*
Y98760D01*
D32*
X39600Y112200D02*
Y127800D01*
X30400Y112200D02*
Y127800D01*
X39600D01*
X30400Y112200D02*
X39600D01*
X29600D02*
Y127800D01*
X20400Y112200D02*
Y127800D01*
X29600D01*
X20400Y112200D02*
X29600D01*
X69600D02*
Y127800D01*
X60400Y112200D02*
Y127800D01*
X69600D01*
X60400Y112200D02*
X69600D01*
X59600D02*
Y127800D01*
X50400Y112200D02*
Y127800D01*
X59600D01*
X50400Y112200D02*
X59600D01*
X89600D02*
Y127800D01*
X80400Y112200D02*
Y127800D01*
X89600D01*
X80400Y112200D02*
X89600D01*
X79600D02*
Y127800D01*
X70400Y112200D02*
Y127800D01*
X79600D01*
X70400Y112200D02*
X79600D01*
X120800Y77900D02*
Y87100D01*
X104200Y77900D02*
Y87100D01*
Y77900D02*
X120800D01*
X104200Y87100D02*
X120800D01*
X104700Y67900D02*
X120300D01*
X104700Y77100D02*
X120300D01*
Y67900D02*
Y77100D01*
X104700Y67900D02*
Y77100D01*
Y47900D02*
X120300D01*
X104700Y57100D02*
X120300D01*
Y47900D02*
Y57100D01*
X104700Y47900D02*
Y57100D01*
X120800Y37900D02*
Y47100D01*
X104200Y37900D02*
Y47100D01*
Y37900D02*
X120800D01*
X104200Y47100D02*
X120800D01*
X104700Y27900D02*
X120300D01*
X104700Y37100D02*
X120300D01*
Y27900D02*
Y37100D01*
X104700Y27900D02*
Y37100D01*
X137200Y67900D02*
X152800D01*
X137200Y77100D02*
X152800D01*
Y67900D02*
Y77100D01*
X137200Y67900D02*
Y77100D01*
X142400Y101300D02*
X151600D01*
X142400Y84700D02*
X151600D01*
Y101300D01*
X142400Y84700D02*
Y101300D01*
X162400D02*
X171600D01*
X162400Y84700D02*
X171600D01*
Y101300D01*
X162400Y84700D02*
Y101300D01*
X211700Y115400D02*
Y124600D01*
X228300Y115400D02*
Y124600D01*
X211700D02*
X228300D01*
X211700Y115400D02*
X228300D01*
X211700Y125400D02*
Y134600D01*
X228300Y125400D02*
Y134600D01*
X211700D02*
X228300D01*
X211700Y125400D02*
X228300D01*
X211700Y155400D02*
Y164600D01*
X228300Y155400D02*
Y164600D01*
X211700D02*
X228300D01*
X211700Y155400D02*
X228300D01*
X212200Y174600D02*
X227800D01*
X212200Y165400D02*
X227800D01*
X212200D02*
Y174600D01*
X227800Y165400D02*
Y174600D01*
X182300Y182400D02*
Y191600D01*
X165700Y182400D02*
Y191600D01*
Y182400D02*
X182300D01*
X165700Y191600D02*
X182300D01*
X183700Y182400D02*
Y191600D01*
X200300Y182400D02*
Y191600D01*
X183700D02*
X200300D01*
X183700Y182400D02*
X200300D01*
X104700Y180400D02*
X120300D01*
X104700Y189600D02*
X120300D01*
Y180400D02*
Y189600D01*
X104700Y180400D02*
Y189600D01*
Y170400D02*
X120300D01*
X104700Y179600D02*
X120300D01*
Y170400D02*
Y179600D01*
X104700Y170400D02*
Y179600D01*
Y160400D02*
X120300D01*
X104700Y169600D02*
X120300D01*
Y160400D02*
Y169600D01*
X104700Y160400D02*
Y169600D01*
Y150400D02*
X120300D01*
X104700Y159600D02*
X120300D01*
Y150400D02*
Y159600D01*
X104700Y150400D02*
Y159600D01*
Y140400D02*
X120300D01*
X104700Y149600D02*
X120300D01*
Y140400D02*
Y149600D01*
X104700Y140400D02*
Y149600D01*
Y130400D02*
X120300D01*
X104700Y139600D02*
X120300D01*
Y130400D02*
Y139600D01*
X104700Y130400D02*
Y139600D01*
Y120400D02*
X120300D01*
X104700Y129600D02*
X120300D01*
Y120400D02*
Y129600D01*
X104700Y120400D02*
Y129600D01*
Y110400D02*
X120300D01*
X104700Y119600D02*
X120300D01*
Y110400D02*
Y119600D01*
X104700Y110400D02*
Y119600D01*
Y100400D02*
X120300D01*
X104700Y109600D02*
X120300D01*
Y100400D02*
Y109600D01*
X104700Y100400D02*
Y109600D01*
X5700Y18700D02*
Y29300D01*
X28300Y18700D02*
Y29300D01*
X5700D02*
X28300D01*
X5700Y18700D02*
X28300D01*
X95300Y19400D02*
Y28600D01*
X78700Y19400D02*
Y28600D01*
Y19400D02*
X95300D01*
X78700Y28600D02*
X95300D01*
X117100Y4700D02*
Y20300D01*
X107900Y4700D02*
Y20300D01*
X117100D01*
X107900Y4700D02*
X117100D01*
X184200Y55600D02*
X199800D01*
X184200Y46400D02*
X199800D01*
X184200D02*
Y55600D01*
X199800Y46400D02*
Y55600D01*
X184200Y85600D02*
X199800D01*
X184200Y76400D02*
X199800D01*
X184200D02*
Y85600D01*
X199800Y76400D02*
Y85600D01*
X184200Y65600D02*
X199800D01*
X184200Y56400D02*
X199800D01*
X184200D02*
Y65600D01*
X199800Y56400D02*
Y65600D01*
X184200Y95600D02*
X199800D01*
X184200Y86400D02*
X199800D01*
X184200D02*
Y95600D01*
X199800Y86400D02*
Y95600D01*
X200300Y66400D02*
Y75600D01*
X183700Y66400D02*
Y75600D01*
Y66400D02*
X200300D01*
X183700Y75600D02*
X200300D01*
X211700Y145400D02*
Y154600D01*
X228300Y145400D02*
Y154600D01*
X211700D02*
X228300D01*
X211700Y145400D02*
X228300D01*
X211700Y175400D02*
Y184600D01*
X228300Y175400D02*
Y184600D01*
X211700D02*
X228300D01*
X211700Y175400D02*
X228300D01*
X132900Y174700D02*
Y190300D01*
X142100Y174700D02*
Y190300D01*
X132900Y174700D02*
X142100D01*
X132900Y190300D02*
X142100D01*
X120800Y57900D02*
Y67100D01*
X104200Y57900D02*
Y67100D01*
Y57900D02*
X120800D01*
X104200Y67100D02*
X120800D01*
X136700Y55400D02*
Y64600D01*
X153300Y55400D02*
Y64600D01*
X136700D02*
X153300D01*
X136700Y55400D02*
X153300D01*
X147900Y174700D02*
Y190300D01*
X157100Y174700D02*
Y190300D01*
X147900Y174700D02*
X157100D01*
X147900Y190300D02*
X157100D01*
X132400Y101300D02*
X141600D01*
X132400Y84700D02*
X141600D01*
Y101300D01*
X132400Y84700D02*
Y101300D01*
X161600Y85200D02*
Y100800D01*
X152400Y85200D02*
Y100800D01*
X161600D01*
X152400Y85200D02*
X161600D01*
X192100Y19700D02*
Y35300D01*
X182900Y19700D02*
Y35300D01*
X192100D01*
X182900Y19700D02*
X192100D01*
X202900D02*
Y35300D01*
X212100Y19700D02*
Y35300D01*
X202900Y19700D02*
X212100D01*
X202900Y35300D02*
X212100D01*
X222900Y19700D02*
Y35300D01*
X232100Y19700D02*
Y35300D01*
X222900Y19700D02*
X232100D01*
X222900Y35300D02*
X232100D01*
X242900Y19700D02*
Y35300D01*
X252100Y19700D02*
Y35300D01*
X242900Y19700D02*
X252100D01*
X242900Y35300D02*
X252100D01*
X241200Y181400D02*
X256800D01*
X241200Y190600D02*
X256800D01*
Y181400D02*
Y190600D01*
X241200Y181400D02*
Y190600D01*
X239700Y123400D02*
Y132600D01*
X256300Y123400D02*
Y132600D01*
X239700D02*
X256300D01*
X239700Y123400D02*
X256300D01*
X5400Y184700D02*
X14600D01*
X5400Y201300D02*
X14600D01*
X5400Y184700D02*
Y201300D01*
X14600Y184700D02*
Y201300D01*
X37300Y154400D02*
Y163600D01*
X20700Y154400D02*
Y163600D01*
Y154400D02*
X37300D01*
X20700Y163600D02*
X37300D01*
X62200Y191600D02*
X77800D01*
X62200Y182400D02*
X77800D01*
X62200D02*
Y191600D01*
X77800Y182400D02*
Y191600D01*
X80200Y182400D02*
X95800D01*
X80200Y191600D02*
X95800D01*
Y182400D02*
Y191600D01*
X80200Y182400D02*
Y191600D01*
X51400Y172300D02*
X60600D01*
X51400Y155700D02*
X60600D01*
Y172300D01*
X51400Y155700D02*
Y172300D01*
X137200Y37900D02*
X152800D01*
X137200Y47100D02*
X152800D01*
Y37900D02*
Y47100D01*
X137200Y37900D02*
Y47100D01*
X120001Y9499D02*
X119501Y8999D01*
Y8000D01*
X120001Y7500D01*
X122000D01*
X122500Y8000D01*
Y8999D01*
X122000Y9499D01*
X122500Y10499D02*
X119501D01*
X122500Y12498D01*
X119501D01*
X122500Y13498D02*
Y14498D01*
Y13998D01*
X119501D01*
X120001Y13498D01*
X44999Y201499D02*
X44499Y201999D01*
X43500D01*
X43000Y201499D01*
Y199500D01*
X43500Y199000D01*
X44499D01*
X44999Y199500D01*
X45999Y199000D02*
Y201999D01*
X47998Y199000D01*
Y201999D01*
X50498Y199000D02*
Y201999D01*
X48998Y200500D01*
X50997D01*
X189501Y7999D02*
X189001Y7500D01*
Y6500D01*
X189501Y6000D01*
X191500D01*
X192000Y6500D01*
Y7500D01*
X191500Y7999D01*
X192000Y8999D02*
X189001D01*
X192000Y10998D01*
X189001D01*
X192000Y13997D02*
Y11998D01*
X190001Y13997D01*
X189501D01*
X189001Y13498D01*
Y12498D01*
X189501Y11998D01*
X170501Y198999D02*
X170001Y198500D01*
Y197500D01*
X170501Y197000D01*
X172500D01*
X173000Y197500D01*
Y198500D01*
X172500Y198999D01*
X173000Y199999D02*
X170001D01*
X173000Y201998D01*
X170001D01*
X170501Y202998D02*
X170001Y203498D01*
Y204498D01*
X170501Y204997D01*
X171001D01*
X171501Y204498D01*
Y203998D01*
Y204498D01*
X172000Y204997D01*
X172500D01*
X173000Y204498D01*
Y203498D01*
X172500Y202998D01*
X149999Y35499D02*
X149499Y35999D01*
X148500D01*
X148000Y35499D01*
Y33500D01*
X148500Y33000D01*
X149499D01*
X149999Y33500D01*
X150999Y33000D02*
X151999D01*
X151499D01*
Y35999D01*
X150999Y35499D01*
X135999Y105499D02*
X135500Y105999D01*
X134500D01*
X134000Y105499D01*
Y103500D01*
X134500Y103000D01*
X135500D01*
X135999Y103500D01*
X138998Y103000D02*
X136999D01*
X138998Y104999D01*
Y105499D01*
X138499Y105999D01*
X137499D01*
X136999Y105499D01*
X145999D02*
X145500Y105999D01*
X144500D01*
X144000Y105499D01*
Y103500D01*
X144500Y103000D01*
X145500D01*
X145999Y103500D01*
X146999Y105499D02*
X147499Y105999D01*
X148499D01*
X148998Y105499D01*
Y104999D01*
X148499Y104499D01*
X147999D01*
X148499D01*
X148998Y104000D01*
Y103500D01*
X148499Y103000D01*
X147499D01*
X146999Y103500D01*
X165999Y105499D02*
X165499Y105999D01*
X164500D01*
X164000Y105499D01*
Y103500D01*
X164500Y103000D01*
X165499D01*
X165999Y103500D01*
X168499Y103000D02*
Y105999D01*
X166999Y104499D01*
X168998D01*
X232999Y121499D02*
X232500Y121999D01*
X231500D01*
X231000Y121499D01*
Y119500D01*
X231500Y119000D01*
X232500D01*
X232999Y119500D01*
X235998Y121999D02*
X233999D01*
Y120500D01*
X234999Y120999D01*
X235498D01*
X235998Y120500D01*
Y119500D01*
X235498Y119000D01*
X234499D01*
X233999Y119500D01*
X232999Y131499D02*
X232500Y131999D01*
X231500D01*
X231000Y131499D01*
Y129500D01*
X231500Y129000D01*
X232500D01*
X232999Y129500D01*
X235998Y131999D02*
X234999Y131499D01*
X233999Y130499D01*
Y129500D01*
X234499Y129000D01*
X235498D01*
X235998Y129500D01*
Y130000D01*
X235498Y130499D01*
X233999D01*
X232999Y151499D02*
X232500Y151999D01*
X231500D01*
X231000Y151499D01*
Y149500D01*
X231500Y149000D01*
X232500D01*
X232999Y149500D01*
X233999Y151999D02*
X235998D01*
Y151499D01*
X233999Y149500D01*
Y149000D01*
X124999Y63499D02*
X124499Y63999D01*
X123500D01*
X123000Y63499D01*
Y61500D01*
X123500Y61000D01*
X124499D01*
X124999Y61500D01*
X125999Y63499D02*
X126499Y63999D01*
X127499D01*
X127998Y63499D01*
Y62999D01*
X127499Y62499D01*
X127998Y62000D01*
Y61500D01*
X127499Y61000D01*
X126499D01*
X125999Y61500D01*
Y62000D01*
X126499Y62499D01*
X125999Y62999D01*
Y63499D01*
X126499Y62499D02*
X127499D01*
X160501Y185999D02*
X160001Y185500D01*
Y184500D01*
X160501Y184000D01*
X162500D01*
X163000Y184500D01*
Y185500D01*
X162500Y185999D01*
Y186999D02*
X163000Y187499D01*
Y188499D01*
X162500Y188998D01*
X160501D01*
X160001Y188499D01*
Y187499D01*
X160501Y186999D01*
X161001D01*
X161501Y187499D01*
Y188998D01*
X124999Y83499D02*
X124499Y83999D01*
X123500D01*
X123000Y83499D01*
Y81500D01*
X123500Y81000D01*
X124499D01*
X124999Y81500D01*
X125999Y81000D02*
X126999D01*
X126499D01*
Y83999D01*
X125999Y83499D01*
X128498D02*
X128998Y83999D01*
X129998D01*
X130498Y83499D01*
Y81500D01*
X129998Y81000D01*
X128998D01*
X128498Y81500D01*
Y83499D01*
X203999Y188499D02*
X203500Y188999D01*
X202500D01*
X202000Y188499D01*
Y186500D01*
X202500Y186000D01*
X203500D01*
X203999Y186500D01*
X204999Y186000D02*
X205999D01*
X205499D01*
Y188999D01*
X204999Y188499D01*
X207498Y186000D02*
X208498D01*
X207998D01*
Y188999D01*
X207498Y188499D01*
X124999Y43499D02*
X124499Y43999D01*
X123500D01*
X123000Y43499D01*
Y41500D01*
X123500Y41000D01*
X124499D01*
X124999Y41500D01*
X125999Y41000D02*
X126999D01*
X126499D01*
Y43999D01*
X125999Y43499D01*
X130498Y41000D02*
X128498D01*
X130498Y42999D01*
Y43499D01*
X129998Y43999D01*
X128998D01*
X128498Y43499D01*
X230999Y191499D02*
X230500Y191999D01*
X229500D01*
X229000Y191499D01*
Y189500D01*
X229500Y189000D01*
X230500D01*
X230999Y189500D01*
X231999Y189000D02*
X232999D01*
X232499D01*
Y191999D01*
X231999Y191499D01*
X234498D02*
X234998Y191999D01*
X235998D01*
X236498Y191499D01*
Y190999D01*
X235998Y190499D01*
X235498D01*
X235998D01*
X236498Y190000D01*
Y189500D01*
X235998Y189000D01*
X234998D01*
X234498Y189500D01*
X232999Y180499D02*
X232500Y180999D01*
X231500D01*
X231000Y180499D01*
Y178500D01*
X231500Y178000D01*
X232500D01*
X232999Y178500D01*
X233999Y178000D02*
X234999D01*
X234499D01*
Y180999D01*
X233999Y180499D01*
X237998Y178000D02*
Y180999D01*
X236498Y179499D01*
X238498D01*
X33999Y25499D02*
X33500Y25999D01*
X32500D01*
X32000Y25499D01*
Y23500D01*
X32500Y23000D01*
X33500D01*
X33999Y23500D01*
X34999Y23000D02*
X35999D01*
X35499D01*
Y25999D01*
X34999Y25499D01*
X39498Y25999D02*
X37498D01*
Y24499D01*
X38498Y24999D01*
X38998D01*
X39498Y24499D01*
Y23500D01*
X38998Y23000D01*
X37998D01*
X37498Y23500D01*
X69999Y28499D02*
X69499Y28999D01*
X68500D01*
X68000Y28499D01*
Y26500D01*
X68500Y26000D01*
X69499D01*
X69999Y26500D01*
X70999Y26000D02*
X71999D01*
X71499D01*
Y28999D01*
X70999Y28499D01*
X75498Y28999D02*
X74498Y28499D01*
X73498Y27499D01*
Y26500D01*
X73998Y26000D01*
X74998D01*
X75498Y26500D01*
Y27000D01*
X74998Y27499D01*
X73498D01*
X260999Y129499D02*
X260500Y129999D01*
X259500D01*
X259000Y129499D01*
Y127500D01*
X259500Y127000D01*
X260500D01*
X260999Y127500D01*
X261999Y127000D02*
X262999D01*
X262499D01*
Y129999D01*
X261999Y129499D01*
X264498Y129999D02*
X266498D01*
Y129499D01*
X264498Y127500D01*
Y127000D01*
X156999Y61499D02*
X156500Y61999D01*
X155500D01*
X155000Y61499D01*
Y59500D01*
X155500Y59000D01*
X156500D01*
X156999Y59500D01*
X157999Y59000D02*
X158999D01*
X158499D01*
Y61999D01*
X157999Y61499D01*
X160498Y59500D02*
X160998Y59000D01*
X161998D01*
X162498Y59500D01*
Y61499D01*
X161998Y61999D01*
X160998D01*
X160498Y61499D01*
Y60999D01*
X160998Y60500D01*
X162498D01*
X232999Y141499D02*
X232500Y141999D01*
X231500D01*
X231000Y141499D01*
Y139500D01*
X231500Y139000D01*
X232500D01*
X232999Y139500D01*
X235998Y139000D02*
X233999D01*
X235998Y140999D01*
Y141499D01*
X235498Y141999D01*
X234499D01*
X233999Y141499D01*
X236998D02*
X237498Y141999D01*
X238498D01*
X238997Y141499D01*
Y139500D01*
X238498Y139000D01*
X237498D01*
X236998Y139500D01*
Y141499D01*
X232999Y161499D02*
X232500Y161999D01*
X231500D01*
X231000Y161499D01*
Y159500D01*
X231500Y159000D01*
X232500D01*
X232999Y159500D01*
X235998Y159000D02*
X233999D01*
X235998Y160999D01*
Y161499D01*
X235498Y161999D01*
X234499D01*
X233999Y161499D01*
X236998Y159000D02*
X237998D01*
X237498D01*
Y161999D01*
X236998Y161499D01*
X26999Y151499D02*
X26500Y151999D01*
X25500D01*
X25000Y151499D01*
Y149500D01*
X25500Y149000D01*
X26500D01*
X26999Y149500D01*
X29998Y149000D02*
X27999D01*
X29998Y150999D01*
Y151499D01*
X29499Y151999D01*
X28499D01*
X27999Y151499D01*
X32997Y149000D02*
X30998D01*
X32997Y150999D01*
Y151499D01*
X32498Y151999D01*
X31498D01*
X30998Y151499D01*
X53999Y177499D02*
X53500Y177999D01*
X52500D01*
X52000Y177499D01*
Y175500D01*
X52500Y175000D01*
X53500D01*
X53999Y175500D01*
X56998Y175000D02*
X54999D01*
X56998Y176999D01*
Y177499D01*
X56499Y177999D01*
X55499D01*
X54999Y177499D01*
X57998D02*
X58498Y177999D01*
X59498D01*
X59997Y177499D01*
Y176999D01*
X59498Y176499D01*
X58998D01*
X59498D01*
X59997Y176000D01*
Y175500D01*
X59498Y175000D01*
X58498D01*
X57998Y175500D01*
X175999Y72499D02*
X175499Y72999D01*
X174500D01*
X174000Y72499D01*
Y70500D01*
X174500Y70000D01*
X175499D01*
X175999Y70500D01*
X178998Y70000D02*
X176999D01*
X178998Y71999D01*
Y72499D01*
X178499Y72999D01*
X177499D01*
X176999Y72499D01*
X181997Y72999D02*
X179998D01*
Y71500D01*
X180998Y71999D01*
X181498D01*
X181997Y71500D01*
Y70500D01*
X181498Y70000D01*
X180498D01*
X179998Y70500D01*
X9499Y104999D02*
X8999Y105499D01*
X8000D01*
X7500Y104999D01*
Y103000D01*
X8000Y102500D01*
X8999D01*
X9499Y103000D01*
X10499Y102500D02*
Y105499D01*
X12498Y102500D01*
Y105499D01*
X15497D02*
X13498D01*
Y103999D01*
X14498Y104499D01*
X14998D01*
X15497Y103999D01*
Y103000D01*
X14998Y102500D01*
X13998D01*
X13498Y103000D01*
X197999Y111499D02*
X197500Y111999D01*
X196500D01*
X196000Y111499D01*
Y109500D01*
X196500Y109000D01*
X197500D01*
X197999Y109500D01*
X198999Y109000D02*
Y111999D01*
X200998Y109000D01*
Y111999D01*
X203997D02*
X202998Y111499D01*
X201998Y110500D01*
Y109500D01*
X202498Y109000D01*
X203498D01*
X203997Y109500D01*
Y110000D01*
X203498Y110500D01*
X201998D01*
X135999Y33999D02*
X134000D01*
Y32500D01*
X135000D01*
X134000D01*
Y31000D01*
X136999Y33999D02*
Y31000D01*
X138499D01*
X138998Y31500D01*
Y32000D01*
X138499Y32500D01*
X136999D01*
X138499D01*
X138998Y32999D01*
Y33499D01*
X138499Y33999D01*
X136999D01*
X139998Y31000D02*
X140998D01*
X140498D01*
Y33999D01*
X139998Y33499D01*
X141000Y120999D02*
X142000D01*
X141500D01*
Y118000D01*
X141000D01*
X142000D01*
X145499Y120499D02*
X144999Y120999D01*
X143999D01*
X143499Y120499D01*
Y118500D01*
X143999Y118000D01*
X144999D01*
X145499Y118500D01*
X146498Y118000D02*
X147498D01*
X146998D01*
Y120999D01*
X146498Y120499D01*
X38878Y168464D02*
X39878D01*
X39378D01*
Y165465D01*
X38878D01*
X39878D01*
X43377Y167964D02*
X42877Y168464D01*
X41877D01*
X41378Y167964D01*
Y165964D01*
X41877Y165465D01*
X42877D01*
X43377Y165964D01*
X46376Y165465D02*
X44377D01*
X46376Y167464D01*
Y167964D01*
X45876Y168464D01*
X44877D01*
X44377Y167964D01*
X87000Y164999D02*
X88000D01*
X87500D01*
Y162000D01*
X87000D01*
X88000D01*
X91499Y164499D02*
X90999Y164999D01*
X89999D01*
X89499Y164499D01*
Y162500D01*
X89999Y162000D01*
X90999D01*
X91499Y162500D01*
X92498Y164499D02*
X92998Y164999D01*
X93998D01*
X94498Y164499D01*
Y163999D01*
X93998Y163499D01*
X93498D01*
X93998D01*
X94498Y163000D01*
Y162500D01*
X93998Y162000D01*
X92998D01*
X92498Y162500D01*
X173000Y44999D02*
Y42000D01*
X174999D01*
X177998Y44999D02*
X175999D01*
Y42000D01*
X177998D01*
X175999Y43499D02*
X176999D01*
X178998Y44999D02*
Y42000D01*
X180498D01*
X180997Y42500D01*
Y44499D01*
X180498Y44999D01*
X178998D01*
X181997Y42000D02*
X182997D01*
X182497D01*
Y44999D01*
X181997Y44499D01*
X192000Y44999D02*
Y42000D01*
X193999D01*
X196998Y44999D02*
X194999D01*
Y42000D01*
X196998D01*
X194999Y43499D02*
X195999D01*
X197998Y44999D02*
Y42000D01*
X199498D01*
X199997Y42500D01*
Y44499D01*
X199498Y44999D01*
X197998D01*
X202996Y42000D02*
X200997D01*
X202996Y43999D01*
Y44499D01*
X202497Y44999D01*
X201497D01*
X200997Y44499D01*
X212000Y45999D02*
Y43000D01*
X213999D01*
X216998Y45999D02*
X214999D01*
Y43000D01*
X216998D01*
X214999Y44499D02*
X215999D01*
X217998Y45999D02*
Y43000D01*
X219498D01*
X219997Y43500D01*
Y45499D01*
X219498Y45999D01*
X217998D01*
X220997Y45499D02*
X221497Y45999D01*
X222497D01*
X222996Y45499D01*
Y44999D01*
X222497Y44499D01*
X221997D01*
X222497D01*
X222996Y44000D01*
Y43500D01*
X222497Y43000D01*
X221497D01*
X220997Y43500D01*
X232000Y46999D02*
Y44000D01*
X233999D01*
X236998Y46999D02*
X234999D01*
Y44000D01*
X236998D01*
X234999Y45500D02*
X235999D01*
X237998Y46999D02*
Y44000D01*
X239498D01*
X239997Y44500D01*
Y46499D01*
X239498Y46999D01*
X237998D01*
X242497Y44000D02*
Y46999D01*
X240997Y45500D01*
X242996D01*
X122000Y134000D02*
Y136999D01*
X123500D01*
X123999Y136499D01*
Y135500D01*
X123500Y135000D01*
X122000D01*
X123000D02*
X123999Y134000D01*
X124999D02*
X125999D01*
X125499D01*
Y136999D01*
X124999Y136499D01*
X122000Y144000D02*
Y146999D01*
X123500D01*
X123999Y146499D01*
Y145500D01*
X123500Y145000D01*
X122000D01*
X123000D02*
X123999Y144000D01*
X126998D02*
X124999D01*
X126998Y145999D01*
Y146499D01*
X126499Y146999D01*
X125499D01*
X124999Y146499D01*
X122000Y124000D02*
Y126999D01*
X123500D01*
X123999Y126499D01*
Y125499D01*
X123500Y125000D01*
X122000D01*
X123000D02*
X123999Y124000D01*
X124999Y126499D02*
X125499Y126999D01*
X126499D01*
X126998Y126499D01*
Y125999D01*
X126499Y125499D01*
X125999D01*
X126499D01*
X126998Y125000D01*
Y124500D01*
X126499Y124000D01*
X125499D01*
X124999Y124500D01*
X122000Y153000D02*
Y155999D01*
X123500D01*
X123999Y155499D01*
Y154499D01*
X123500Y154000D01*
X122000D01*
X123000D02*
X123999Y153000D01*
X126499D02*
Y155999D01*
X124999Y154499D01*
X126998D01*
X130000Y113000D02*
Y115999D01*
X131500D01*
X131999Y115499D01*
Y114499D01*
X131500Y114000D01*
X130000D01*
X131000D02*
X131999Y113000D01*
X134998Y115999D02*
X132999D01*
Y114499D01*
X133999Y114999D01*
X134499D01*
X134998Y114499D01*
Y113500D01*
X134499Y113000D01*
X133499D01*
X132999Y113500D01*
X122000Y164000D02*
Y166999D01*
X123500D01*
X123999Y166499D01*
Y165499D01*
X123500Y165000D01*
X122000D01*
X123000D02*
X123999Y164000D01*
X126998Y166999D02*
X125999Y166499D01*
X124999Y165499D01*
Y164500D01*
X125499Y164000D01*
X126499D01*
X126998Y164500D01*
Y165000D01*
X126499Y165499D01*
X124999D01*
X122000Y104000D02*
Y106999D01*
X123500D01*
X123999Y106499D01*
Y105499D01*
X123500Y105000D01*
X122000D01*
X123000D02*
X123999Y104000D01*
X124999Y106999D02*
X126998D01*
Y106499D01*
X124999Y104500D01*
Y104000D01*
X122000Y173000D02*
Y175999D01*
X123500D01*
X123999Y175499D01*
Y174499D01*
X123500Y174000D01*
X122000D01*
X123000D02*
X123999Y173000D01*
X124999Y175499D02*
X125499Y175999D01*
X126499D01*
X126998Y175499D01*
Y174999D01*
X126499Y174499D01*
X126998Y174000D01*
Y173500D01*
X126499Y173000D01*
X125499D01*
X124999Y173500D01*
Y174000D01*
X125499Y174499D01*
X124999Y174999D01*
Y175499D01*
X125499Y174499D02*
X126499D01*
X122000Y184000D02*
Y186999D01*
X123500D01*
X123999Y186499D01*
Y185500D01*
X123500Y185000D01*
X122000D01*
X123000D02*
X123999Y184000D01*
X124999Y184500D02*
X125499Y184000D01*
X126499D01*
X126998Y184500D01*
Y186499D01*
X126499Y186999D01*
X125499D01*
X124999Y186499D01*
Y185999D01*
X125499Y185500D01*
X126998D01*
X71000Y130000D02*
Y132999D01*
X72500D01*
X72999Y132499D01*
Y131500D01*
X72500Y131000D01*
X71000D01*
X72000D02*
X72999Y130000D01*
X73999D02*
X74999D01*
X74499D01*
Y132999D01*
X73999Y132499D01*
X76498D02*
X76998Y132999D01*
X77998D01*
X78498Y132499D01*
Y130500D01*
X77998Y130000D01*
X76998D01*
X76498Y130500D01*
Y132499D01*
X50000Y130000D02*
Y132999D01*
X51499D01*
X51999Y132499D01*
Y131500D01*
X51499Y131000D01*
X50000D01*
X51000D02*
X51999Y130000D01*
X52999D02*
X53999D01*
X53499D01*
Y132999D01*
X52999Y132499D01*
X55498Y130000D02*
X56498D01*
X55998D01*
Y132999D01*
X55498Y132499D01*
X123000Y51000D02*
Y53999D01*
X124499D01*
X124999Y53499D01*
Y52500D01*
X124499Y52000D01*
X123000D01*
X124000D02*
X124999Y51000D01*
X125999D02*
X126999D01*
X126499D01*
Y53999D01*
X125999Y53499D01*
X130498Y51000D02*
X128498D01*
X130498Y52999D01*
Y53499D01*
X129998Y53999D01*
X128998D01*
X128498Y53499D01*
X149000Y170000D02*
Y172999D01*
X150499D01*
X150999Y172499D01*
Y171500D01*
X150499Y171000D01*
X149000D01*
X150000D02*
X150999Y170000D01*
X151999D02*
X152999D01*
X152499D01*
Y172999D01*
X151999Y172499D01*
X154498D02*
X154998Y172999D01*
X155998D01*
X156498Y172499D01*
Y171999D01*
X155998Y171500D01*
X155498D01*
X155998D01*
X156498Y171000D01*
Y170500D01*
X155998Y170000D01*
X154998D01*
X154498Y170500D01*
X134000Y170000D02*
Y172999D01*
X135500D01*
X135999Y172499D01*
Y171500D01*
X135500Y171000D01*
X134000D01*
X135000D02*
X135999Y170000D01*
X136999D02*
X137999D01*
X137499D01*
Y172999D01*
X136999Y172499D01*
X140998Y170000D02*
Y172999D01*
X139498Y171500D01*
X141498D01*
X81000Y130000D02*
Y132999D01*
X82499D01*
X82999Y132499D01*
Y131500D01*
X82499Y131000D01*
X81000D01*
X82000D02*
X82999Y130000D01*
X83999D02*
X84999D01*
X84499D01*
Y132999D01*
X83999Y132499D01*
X88498Y132999D02*
X86498D01*
Y131500D01*
X87498Y131999D01*
X87998D01*
X88498Y131500D01*
Y130500D01*
X87998Y130000D01*
X86998D01*
X86498Y130500D01*
X60000Y130000D02*
Y132999D01*
X61500D01*
X61999Y132499D01*
Y131500D01*
X61500Y131000D01*
X60000D01*
X61000D02*
X61999Y130000D01*
X62999D02*
X63999D01*
X63499D01*
Y132999D01*
X62999Y132499D01*
X67498Y132999D02*
X66498Y132499D01*
X65498Y131500D01*
Y130500D01*
X65998Y130000D01*
X66998D01*
X67498Y130500D01*
Y131000D01*
X66998Y131500D01*
X65498D01*
X141000Y49000D02*
Y51999D01*
X142499D01*
X142999Y51499D01*
Y50499D01*
X142499Y50000D01*
X141000D01*
X142000D02*
X142999Y49000D01*
X143999D02*
X144999D01*
X144499D01*
Y51999D01*
X143999Y51499D01*
X146498Y51999D02*
X148498D01*
Y51499D01*
X146498Y49500D01*
Y49000D01*
X155000Y71000D02*
Y73999D01*
X156500D01*
X156999Y73499D01*
Y72500D01*
X156500Y72000D01*
X155000D01*
X156000D02*
X156999Y71000D01*
X157999D02*
X158999D01*
X158499D01*
Y73999D01*
X157999Y73499D01*
X160498D02*
X160998Y73999D01*
X161998D01*
X162498Y73499D01*
Y72999D01*
X161998Y72500D01*
X162498Y72000D01*
Y71500D01*
X161998Y71000D01*
X160998D01*
X160498Y71500D01*
Y72000D01*
X160998Y72500D01*
X160498Y72999D01*
Y73499D01*
X160998Y72500D02*
X161998D01*
X20400Y131000D02*
Y133999D01*
X21900D01*
X22399Y133499D01*
Y132500D01*
X21900Y132000D01*
X20400D01*
X21400D02*
X22399Y131000D01*
X23399D02*
X24399D01*
X23899D01*
Y133999D01*
X23399Y133499D01*
X25898Y131500D02*
X26398Y131000D01*
X27398D01*
X27898Y131500D01*
Y133499D01*
X27398Y133999D01*
X26398D01*
X25898Y133499D01*
Y132999D01*
X26398Y132500D01*
X27898D01*
X108500Y22500D02*
Y25499D01*
X110000D01*
X110499Y24999D01*
Y24000D01*
X110000Y23500D01*
X108500D01*
X109500D02*
X110499Y22500D01*
X113498D02*
X111499D01*
X113498Y24499D01*
Y24999D01*
X112999Y25499D01*
X111999D01*
X111499Y24999D01*
X114498D02*
X114998Y25499D01*
X115998D01*
X116497Y24999D01*
Y23000D01*
X115998Y22500D01*
X114998D01*
X114498Y23000D01*
Y24999D01*
X232000Y184000D02*
Y186999D01*
X233500D01*
X233999Y186499D01*
Y185500D01*
X233500Y185000D01*
X232000D01*
X233000D02*
X233999Y184000D01*
X236998D02*
X234999D01*
X236998Y185999D01*
Y186499D01*
X236498Y186999D01*
X235499D01*
X234999Y186499D01*
X237998Y184000D02*
X238998D01*
X238498D01*
Y186999D01*
X237998Y186499D01*
X30400Y131000D02*
Y133999D01*
X31899D01*
X32399Y133499D01*
Y132500D01*
X31899Y132000D01*
X30400D01*
X31400D02*
X32399Y131000D01*
X35398D02*
X33399D01*
X35398Y132999D01*
Y133499D01*
X34899Y133999D01*
X33899D01*
X33399Y133499D01*
X36398D02*
X36898Y133999D01*
X37898D01*
X38397Y133499D01*
Y132999D01*
X37898Y132500D01*
X37398D01*
X37898D01*
X38397Y132000D01*
Y131500D01*
X37898Y131000D01*
X36898D01*
X36398Y131500D01*
X153000Y103000D02*
Y105999D01*
X154499D01*
X154999Y105499D01*
Y104499D01*
X154499Y104000D01*
X153000D01*
X154000D02*
X154999Y103000D01*
X157998D02*
X155999D01*
X157998Y104999D01*
Y105499D01*
X157499Y105999D01*
X156499D01*
X155999Y105499D01*
X160498Y103000D02*
Y105999D01*
X158998Y104499D01*
X160997D01*
X123000Y71000D02*
Y73999D01*
X124499D01*
X124999Y73499D01*
Y72500D01*
X124499Y72000D01*
X123000D01*
X124000D02*
X124999Y71000D01*
X127998D02*
X125999D01*
X127998Y72999D01*
Y73499D01*
X127499Y73999D01*
X126499D01*
X125999Y73499D01*
X130997Y73999D02*
X128998D01*
Y72500D01*
X129998Y72999D01*
X130498D01*
X130997Y72500D01*
Y71500D01*
X130498Y71000D01*
X129498D01*
X128998Y71500D01*
X123000Y31000D02*
Y33999D01*
X124499D01*
X124999Y33499D01*
Y32500D01*
X124499Y32000D01*
X123000D01*
X124000D02*
X124999Y31000D01*
X127998D02*
X125999D01*
X127998Y32999D01*
Y33499D01*
X127499Y33999D01*
X126499D01*
X125999Y33499D01*
X130997Y33999D02*
X129998Y33499D01*
X128998Y32500D01*
Y31500D01*
X129498Y31000D01*
X130498D01*
X130997Y31500D01*
Y32000D01*
X130498Y32500D01*
X128998D01*
X230000Y168000D02*
Y170999D01*
X231500D01*
X231999Y170499D01*
Y169500D01*
X231500Y169000D01*
X230000D01*
X231000D02*
X231999Y168000D01*
X234998D02*
X232999D01*
X234998Y169999D01*
Y170499D01*
X234499Y170999D01*
X233499D01*
X232999Y170499D01*
X235998Y170999D02*
X237997D01*
Y170499D01*
X235998Y168500D01*
Y168000D01*
X183000Y37000D02*
Y39999D01*
X184500D01*
X184999Y39499D01*
Y38500D01*
X184500Y38000D01*
X183000D01*
X184000D02*
X184999Y37000D01*
X187998D02*
X185999D01*
X187998Y38999D01*
Y39499D01*
X187499Y39999D01*
X186499D01*
X185999Y39499D01*
X188998D02*
X189498Y39999D01*
X190498D01*
X190997Y39499D01*
Y38999D01*
X190498Y38500D01*
X190997Y38000D01*
Y37500D01*
X190498Y37000D01*
X189498D01*
X188998Y37500D01*
Y38000D01*
X189498Y38500D01*
X188998Y38999D01*
Y39499D01*
X189498Y38500D02*
X190498D01*
X203000Y37000D02*
Y39999D01*
X204500D01*
X204999Y39499D01*
Y38500D01*
X204500Y38000D01*
X203000D01*
X204000D02*
X204999Y37000D01*
X207998D02*
X205999D01*
X207998Y38999D01*
Y39499D01*
X207499Y39999D01*
X206499D01*
X205999Y39499D01*
X208998Y37500D02*
X209498Y37000D01*
X210498D01*
X210997Y37500D01*
Y39499D01*
X210498Y39999D01*
X209498D01*
X208998Y39499D01*
Y38999D01*
X209498Y38500D01*
X210997D01*
X223000Y37000D02*
Y39999D01*
X224500D01*
X224999Y39499D01*
Y38500D01*
X224500Y38000D01*
X223000D01*
X224000D02*
X224999Y37000D01*
X225999Y39499D02*
X226499Y39999D01*
X227499D01*
X227998Y39499D01*
Y38999D01*
X227499Y38500D01*
X226999D01*
X227499D01*
X227998Y38000D01*
Y37500D01*
X227499Y37000D01*
X226499D01*
X225999Y37500D01*
X228998Y39499D02*
X229498Y39999D01*
X230498D01*
X230997Y39499D01*
Y37500D01*
X230498Y37000D01*
X229498D01*
X228998Y37500D01*
Y39499D01*
X243000Y37000D02*
Y39999D01*
X244499D01*
X244999Y39499D01*
Y38500D01*
X244499Y38000D01*
X243000D01*
X244000D02*
X244999Y37000D01*
X245999Y39499D02*
X246499Y39999D01*
X247498D01*
X247998Y39499D01*
Y38999D01*
X247498Y38500D01*
X246999D01*
X247498D01*
X247998Y38000D01*
Y37500D01*
X247498Y37000D01*
X246499D01*
X245999Y37500D01*
X248998Y37000D02*
X249998D01*
X249498D01*
Y39999D01*
X248998Y39499D01*
X43000Y184000D02*
Y186999D01*
X44499D01*
X44999Y186499D01*
Y185500D01*
X44499Y185000D01*
X43000D01*
X44000D02*
X44999Y184000D01*
X45999Y186499D02*
X46499Y186999D01*
X47499D01*
X47998Y186499D01*
Y185999D01*
X47499Y185500D01*
X46999D01*
X47499D01*
X47998Y185000D01*
Y184500D01*
X47499Y184000D01*
X46499D01*
X45999Y184500D01*
X50997Y184000D02*
X48998D01*
X50997Y185999D01*
Y186499D01*
X50498Y186999D01*
X49498D01*
X48998Y186499D01*
X87000Y177000D02*
Y179999D01*
X88499D01*
X88999Y179499D01*
Y178499D01*
X88499Y178000D01*
X87000D01*
X88000D02*
X88999Y177000D01*
X89999Y179499D02*
X90499Y179999D01*
X91499D01*
X91998Y179499D01*
Y178999D01*
X91499Y178499D01*
X90999D01*
X91499D01*
X91998Y178000D01*
Y177500D01*
X91499Y177000D01*
X90499D01*
X89999Y177500D01*
X92998Y179499D02*
X93498Y179999D01*
X94498D01*
X94997Y179499D01*
Y178999D01*
X94498Y178499D01*
X93998D01*
X94498D01*
X94997Y178000D01*
Y177500D01*
X94498Y177000D01*
X93498D01*
X92998Y177500D01*
X174000Y89000D02*
Y91999D01*
X175499D01*
X175999Y91499D01*
Y90500D01*
X175499Y90000D01*
X174000D01*
X175000D02*
X175999Y89000D01*
X176999Y91499D02*
X177499Y91999D01*
X178499D01*
X178998Y91499D01*
Y90999D01*
X178499Y90500D01*
X177999D01*
X178499D01*
X178998Y90000D01*
Y89500D01*
X178499Y89000D01*
X177499D01*
X176999Y89500D01*
X181498Y89000D02*
Y91999D01*
X179998Y90500D01*
X181997D01*
X174000Y49000D02*
Y51999D01*
X175499D01*
X175999Y51499D01*
Y50499D01*
X175499Y50000D01*
X174000D01*
X175000D02*
X175999Y49000D01*
X176999Y51499D02*
X177499Y51999D01*
X178499D01*
X178998Y51499D01*
Y50999D01*
X178499Y50499D01*
X177999D01*
X178499D01*
X178998Y50000D01*
Y49500D01*
X178499Y49000D01*
X177499D01*
X176999Y49500D01*
X181997Y51999D02*
X179998D01*
Y50499D01*
X180998Y50999D01*
X181498D01*
X181997Y50499D01*
Y49500D01*
X181498Y49000D01*
X180498D01*
X179998Y49500D01*
X174000Y79000D02*
Y81999D01*
X175499D01*
X175999Y81499D01*
Y80500D01*
X175499Y80000D01*
X174000D01*
X175000D02*
X175999Y79000D01*
X176999Y81499D02*
X177499Y81999D01*
X178499D01*
X178998Y81499D01*
Y80999D01*
X178499Y80500D01*
X177999D01*
X178499D01*
X178998Y80000D01*
Y79500D01*
X178499Y79000D01*
X177499D01*
X176999Y79500D01*
X181997Y81999D02*
X180998Y81499D01*
X179998Y80500D01*
Y79500D01*
X180498Y79000D01*
X181498D01*
X181997Y79500D01*
Y80000D01*
X181498Y80500D01*
X179998D01*
X174000Y59000D02*
Y61999D01*
X175499D01*
X175999Y61499D01*
Y60500D01*
X175499Y60000D01*
X174000D01*
X175000D02*
X175999Y59000D01*
X176999Y61499D02*
X177499Y61999D01*
X178499D01*
X178998Y61499D01*
Y60999D01*
X178499Y60500D01*
X177999D01*
X178499D01*
X178998Y60000D01*
Y59500D01*
X178499Y59000D01*
X177499D01*
X176999Y59500D01*
X179998Y61999D02*
X181997D01*
Y61499D01*
X179998Y59500D01*
Y59000D01*
X61999Y21499D02*
X61500Y21999D01*
X60500D01*
X60000Y21499D01*
Y20999D01*
X60500Y20500D01*
X61500D01*
X61999Y20000D01*
Y19500D01*
X61500Y19000D01*
X60500D01*
X60000Y19500D01*
X62999Y21999D02*
Y19000D01*
X63999Y20000D01*
X64998Y19000D01*
Y21999D01*
X65998Y19000D02*
X66998D01*
X66498D01*
Y21999D01*
X65998Y21499D01*
X243999Y138499D02*
X243499Y138999D01*
X242500D01*
X242000Y138499D01*
Y137999D01*
X242500Y137499D01*
X243499D01*
X243999Y137000D01*
Y136500D01*
X243499Y136000D01*
X242500D01*
X242000Y136500D01*
X244999Y138999D02*
Y136000D01*
X245999Y137000D01*
X246998Y136000D01*
Y138999D01*
X249997Y136000D02*
X247998D01*
X249997Y137999D01*
Y138499D01*
X249498Y138999D01*
X248498D01*
X247998Y138499D01*
X205000Y175499D02*
X206999Y172500D01*
Y175499D02*
X205000Y172500D01*
X207999D02*
X208999D01*
X208499D01*
Y175499D01*
X207999Y174999D01*
X7999Y206499D02*
X7500Y206999D01*
X6500D01*
X6000Y206499D01*
Y204500D01*
X6500Y204000D01*
X7500D01*
X7999Y204500D01*
X8999Y204000D02*
X9999D01*
X9499D01*
Y206999D01*
X8999Y206499D01*
X11498D02*
X11998Y206999D01*
X12998D01*
X13498Y206499D01*
Y205999D01*
X12998Y205500D01*
X13498Y205000D01*
Y204500D01*
X12998Y204000D01*
X11998D01*
X11498Y204500D01*
Y205000D01*
X11998Y205500D01*
X11498Y205999D01*
Y206499D01*
X11998Y205500D02*
X12998D01*
X17000Y202999D02*
X18000D01*
X17500D01*
Y200000D01*
X17000D01*
X18000D01*
X21498Y202499D02*
X20999Y202999D01*
X19999D01*
X19499Y202499D01*
Y200500D01*
X19999Y200000D01*
X20999D01*
X21498Y200500D01*
X24498Y202999D02*
X22498D01*
Y201500D01*
X23498Y201999D01*
X23998D01*
X24498Y201500D01*
Y200500D01*
X23998Y200000D01*
X22998D01*
X22498Y200500D01*
D50*
X214291Y193248D02*
G03*
X214291Y193248I-197J0D01*
G01*
X153445Y29906D02*
G03*
X153445Y29906I-197J0D01*
G01*
D51*
X151909Y119465D02*
G03*
X151909Y119465I-492J0D01*
G01*
X63646Y153551D02*
G03*
X63646Y153551I-492J0D01*
G01*
D52*
X157913Y127732D02*
G03*
X157913Y127732I-1181J0D01*
G01*
D53*
X152795Y123795D02*
X177205D01*
X152795Y148205D02*
X177205D01*
X152795Y123795D02*
Y148205D01*
X177205Y123795D02*
Y148205D01*
X173562Y29273D02*
Y34784D01*
X179862Y36753D02*
X181436Y34784D01*
X173562D02*
X175137Y36753D01*
X181436Y29273D02*
Y34784D01*
X175137Y36753D02*
X179862D01*
X173562Y19430D02*
X181436D01*
X173562D02*
Y25729D01*
X181436Y19430D02*
Y25729D01*
X193562Y29273D02*
Y34784D01*
X199862Y36753D02*
X201436Y34784D01*
X193562D02*
X195137Y36753D01*
X201436Y29273D02*
Y34784D01*
X195137Y36753D02*
X199862D01*
X193562Y19430D02*
X201436D01*
X193562D02*
Y25729D01*
X201436Y19430D02*
Y25729D01*
X213562Y29273D02*
Y34784D01*
X219862Y36753D02*
X221436Y34784D01*
X213562D02*
X215137Y36753D01*
X221436Y29273D02*
Y34784D01*
X215137Y36753D02*
X219862D01*
X213562Y19430D02*
X221436D01*
X213562D02*
Y25729D01*
X221436Y19430D02*
Y25729D01*
X233562Y29273D02*
Y34784D01*
X239862Y36753D02*
X241436Y34784D01*
X233562D02*
X235137Y36753D01*
X241436Y29273D02*
Y34784D01*
X235137Y36753D02*
X239862D01*
X233562Y19430D02*
X241436D01*
X233562D02*
Y25729D01*
X241436Y19430D02*
Y25729D01*
X83842Y159457D02*
Y166543D01*
X64157Y159457D02*
Y166543D01*
X83842D01*
X64157Y159457D02*
X83842D01*
M02*
