G04 Layer_Color=8388736*
%FSLAX25Y25*%
%MOIN*%
G70*
G01*
G75*
%ADD54R,0.07300X0.05800*%
%ADD55R,0.05800X0.07300*%
%ADD56R,0.07099X0.05721*%
%ADD57R,0.06800X0.08800*%
%ADD58R,0.06706X0.05524*%
%ADD59R,0.05918X0.03556*%
%ADD60R,0.06312X0.05524*%
%ADD61R,0.09461X0.05524*%
%ADD62R,0.06312X0.07099*%
%ADD63R,0.05918X0.04934*%
%ADD64R,0.01981X0.06312*%
%ADD65R,0.06312X0.01981*%
%ADD66R,0.04934X0.05918*%
%ADD67R,0.05721X0.08083*%
%ADD68R,0.05524X0.05524*%
%ADD69R,0.05524X0.06706*%
%ADD70R,0.05918X0.02375*%
%ADD71R,0.06706X0.10249*%
%ADD72R,0.03162X0.02375*%
%ADD73O,0.03162X0.09461*%
%ADD74C,0.13300*%
%ADD75C,0.06706*%
%ADD76R,0.06706X0.06706*%
%ADD77C,0.08674*%
%ADD78C,0.04737*%
%ADD79C,0.05918*%
%ADD80C,0.10367*%
%ADD81C,0.07493*%
%ADD82C,0.07965*%
%ADD83C,0.14383*%
%ADD84C,0.03300*%
D54*
X35000Y116000D02*
D03*
Y124000D02*
D03*
X25000Y116000D02*
D03*
Y124000D02*
D03*
X65000Y116000D02*
D03*
Y124000D02*
D03*
X55000Y116000D02*
D03*
Y124000D02*
D03*
X85000Y116000D02*
D03*
Y124000D02*
D03*
X75000Y116000D02*
D03*
Y124000D02*
D03*
X147000Y88500D02*
D03*
Y97500D02*
D03*
X167000Y88500D02*
D03*
Y97500D02*
D03*
X112500Y8500D02*
D03*
Y16500D02*
D03*
X137500Y186500D02*
D03*
Y178500D02*
D03*
X152500Y186500D02*
D03*
Y178500D02*
D03*
X137000Y88500D02*
D03*
Y97500D02*
D03*
X157000Y89000D02*
D03*
Y97000D02*
D03*
X187500Y23500D02*
D03*
Y31500D02*
D03*
X207500D02*
D03*
Y23500D02*
D03*
X227500Y31500D02*
D03*
Y23500D02*
D03*
X247500Y31500D02*
D03*
Y23500D02*
D03*
X10000Y197500D02*
D03*
Y188500D02*
D03*
X56000Y159500D02*
D03*
Y168500D02*
D03*
D55*
X108000Y82500D02*
D03*
X117000D02*
D03*
X108500Y72500D02*
D03*
X116500D02*
D03*
X108500Y52500D02*
D03*
X116500D02*
D03*
X108000Y42500D02*
D03*
X117000D02*
D03*
X108500Y32500D02*
D03*
X116500D02*
D03*
X141000Y72500D02*
D03*
X149000D02*
D03*
X224500Y120000D02*
D03*
X215500D02*
D03*
X224500Y130000D02*
D03*
X215500D02*
D03*
X224500Y160000D02*
D03*
X215500D02*
D03*
X224000Y170000D02*
D03*
X216000D02*
D03*
X169500Y187000D02*
D03*
X178500D02*
D03*
X196500D02*
D03*
X187500D02*
D03*
X108500Y185000D02*
D03*
X116500D02*
D03*
X108500Y175000D02*
D03*
X116500D02*
D03*
X108500Y165000D02*
D03*
X116500D02*
D03*
X108500Y155000D02*
D03*
X116500D02*
D03*
X108500Y145000D02*
D03*
X116500D02*
D03*
X108500Y135000D02*
D03*
X116500D02*
D03*
X108500Y125000D02*
D03*
X116500D02*
D03*
X108500Y115000D02*
D03*
X116500D02*
D03*
X108500Y105000D02*
D03*
X116500D02*
D03*
X82500Y24000D02*
D03*
X91500D02*
D03*
X196000Y51000D02*
D03*
X188000D02*
D03*
X196000Y81000D02*
D03*
X188000D02*
D03*
X196000Y61000D02*
D03*
X188000D02*
D03*
X196000Y91000D02*
D03*
X188000D02*
D03*
X187500Y71000D02*
D03*
X196500D02*
D03*
X224500Y150000D02*
D03*
X215500D02*
D03*
X224500Y180000D02*
D03*
X215500D02*
D03*
X108000Y62500D02*
D03*
X117000D02*
D03*
X149500Y60000D02*
D03*
X140500D02*
D03*
X245000Y186000D02*
D03*
X253000D02*
D03*
X252500Y128000D02*
D03*
X243500D02*
D03*
X24500Y159000D02*
D03*
X33500D02*
D03*
X74000Y187000D02*
D03*
X66000D02*
D03*
X84000D02*
D03*
X92000D02*
D03*
X141000Y42500D02*
D03*
X149000D02*
D03*
D56*
X225413Y140000D02*
D03*
X214587D02*
D03*
D57*
X24000Y24000D02*
D03*
X10000D02*
D03*
D58*
X69842Y10000D02*
D03*
X100157D02*
D03*
D59*
X210000Y90492D02*
D03*
Y86161D02*
D03*
Y81831D02*
D03*
Y77500D02*
D03*
Y73169D02*
D03*
Y68839D02*
D03*
Y64508D02*
D03*
Y60177D02*
D03*
Y55847D02*
D03*
D60*
X212559Y50728D02*
D03*
D61*
X250354D02*
D03*
Y111752D02*
D03*
D62*
X213347Y104665D02*
D03*
D63*
X216260Y190000D02*
D03*
X223740D02*
D03*
D64*
X154173Y119465D02*
D03*
X156142D02*
D03*
X158110D02*
D03*
X160079D02*
D03*
X162047D02*
D03*
X164016D02*
D03*
X165984D02*
D03*
X167953D02*
D03*
X169921D02*
D03*
X171890D02*
D03*
X173858D02*
D03*
X175827D02*
D03*
Y152535D02*
D03*
X173858D02*
D03*
X171890D02*
D03*
X169921D02*
D03*
X167953D02*
D03*
X165984D02*
D03*
X164016D02*
D03*
X162047D02*
D03*
X160079D02*
D03*
X158110D02*
D03*
X156142D02*
D03*
X154173D02*
D03*
D65*
X181535Y125173D02*
D03*
Y127142D02*
D03*
Y129110D02*
D03*
Y131079D02*
D03*
Y133047D02*
D03*
Y135016D02*
D03*
Y136984D02*
D03*
Y138953D02*
D03*
Y140921D02*
D03*
Y142890D02*
D03*
Y144858D02*
D03*
Y146827D02*
D03*
X148465D02*
D03*
Y144858D02*
D03*
Y142890D02*
D03*
Y140921D02*
D03*
Y138953D02*
D03*
Y136984D02*
D03*
Y135016D02*
D03*
Y133047D02*
D03*
Y131079D02*
D03*
Y129110D02*
D03*
Y127142D02*
D03*
Y125173D02*
D03*
D66*
X150000Y27740D02*
D03*
Y20260D02*
D03*
D67*
X134055Y25000D02*
D03*
X140945D02*
D03*
D68*
X177499Y23367D02*
D03*
Y31635D02*
D03*
X197499Y23367D02*
D03*
Y31635D02*
D03*
X217499Y23367D02*
D03*
Y31635D02*
D03*
X237499Y23367D02*
D03*
Y31635D02*
D03*
D69*
X247000Y143842D02*
D03*
Y174158D02*
D03*
D70*
X21701Y196559D02*
D03*
Y194000D02*
D03*
Y191441D02*
D03*
X34299D02*
D03*
Y194000D02*
D03*
Y196559D02*
D03*
D71*
X29000Y175000D02*
D03*
D72*
X34315Y178937D02*
D03*
Y175000D02*
D03*
Y171063D02*
D03*
X23685D02*
D03*
Y175000D02*
D03*
Y178937D02*
D03*
D73*
X81500Y172449D02*
D03*
X76500D02*
D03*
X71500D02*
D03*
X66500D02*
D03*
X81500Y153551D02*
D03*
X76500D02*
D03*
X71500D02*
D03*
X66500D02*
D03*
D74*
X55000Y10000D02*
D03*
X260000Y30000D02*
D03*
Y140000D02*
D03*
X60000Y200000D02*
D03*
D75*
X180000D02*
D03*
X210000D02*
D03*
X240000D02*
D03*
X230000D02*
D03*
X220000D02*
D03*
X200000D02*
D03*
X190000D02*
D03*
X74000D02*
D03*
X84000D02*
D03*
X94000D02*
D03*
X124000D02*
D03*
X154000D02*
D03*
X144000D02*
D03*
X134000D02*
D03*
X114000D02*
D03*
X104000D02*
D03*
X180000Y10000D02*
D03*
X160000D02*
D03*
X150000D02*
D03*
X140000D02*
D03*
X170000D02*
D03*
X250000D02*
D03*
X230000D02*
D03*
X220000D02*
D03*
X210000D02*
D03*
X240000D02*
D03*
D76*
X250000Y200000D02*
D03*
X164000D02*
D03*
X130000Y10000D02*
D03*
X200000D02*
D03*
D77*
X189213Y171000D02*
D03*
X170000D02*
D03*
D78*
X251929Y61752D02*
D03*
Y93248D02*
D03*
X126279Y117500D02*
D03*
D79*
X96752D02*
D03*
D80*
X57008Y37008D02*
D03*
Y97992D02*
D03*
D81*
X80000Y50000D02*
D03*
X70000Y55000D02*
D03*
X80000Y60000D02*
D03*
X70000Y65000D02*
D03*
X80000Y70000D02*
D03*
X70000Y75000D02*
D03*
X80000Y80000D02*
D03*
X70000Y85000D02*
D03*
D82*
X25709Y93583D02*
D03*
Y83583D02*
D03*
Y51417D02*
D03*
Y41417D02*
D03*
D83*
X45000Y90000D02*
D03*
Y45000D02*
D03*
D84*
X12500Y160000D02*
D03*
X45000Y62500D02*
D03*
Y75000D02*
D03*
X15000Y62500D02*
D03*
Y72500D02*
D03*
X147500Y155000D02*
D03*
X190000D02*
D03*
X235000Y175000D02*
D03*
X100000Y170000D02*
D03*
X97500Y52500D02*
D03*
X92500Y37500D02*
D03*
Y87500D02*
D03*
X117500Y92500D02*
D03*
X107500D02*
D03*
X245000Y60000D02*
D03*
Y70000D02*
D03*
Y80000D02*
D03*
Y90000D02*
D03*
Y100000D02*
D03*
X62500Y107500D02*
D03*
X52500D02*
D03*
X42500D02*
D03*
X12500Y112500D02*
D03*
Y122500D02*
D03*
Y132500D02*
D03*
Y142500D02*
D03*
X157500Y126000D02*
D03*
Y42500D02*
D03*
X162047Y127953D02*
D03*
X166000Y128000D02*
D03*
Y73000D02*
D03*
X170000Y126000D02*
D03*
X77500Y140000D02*
D03*
X82000Y143000D02*
D03*
X77000Y146000D02*
D03*
X149000Y109000D02*
D03*
X140000Y160000D02*
D03*
X150000Y162500D02*
D03*
X157500Y165000D02*
D03*
X152500Y167500D02*
D03*
X100000Y32000D02*
D03*
X133000Y60000D02*
D03*
X100000Y70000D02*
D03*
X255000Y20000D02*
D03*
X227500Y17500D02*
D03*
X207500D02*
D03*
X188000Y17000D02*
D03*
X56000Y152000D02*
D03*
X34000Y203000D02*
D03*
X46559Y191441D02*
D03*
X196000Y100000D02*
D03*
X203415Y81831D02*
D03*
X171000Y134000D02*
D03*
X168000Y137000D02*
D03*
X156142Y143000D02*
D03*
X204000Y67000D02*
D03*
Y60000D02*
D03*
X160000Y140000D02*
D03*
X216000Y195000D02*
D03*
X165000Y36000D02*
D03*
X157000Y80000D02*
D03*
X128000Y98000D02*
D03*
X220000Y145000D02*
D03*
X101000Y105000D02*
D03*
X100000Y129000D02*
D03*
X55000Y137000D02*
D03*
X125000Y25000D02*
D03*
X5000Y175000D02*
D03*
X55000Y188000D02*
D03*
X50000Y180000D02*
D03*
X60000Y185000D02*
D03*
X255000Y177500D02*
D03*
X45000Y156000D02*
D03*
X166250Y25000D02*
D03*
X100000Y155000D02*
D03*
X28838Y174838D02*
D03*
M02*
