M48
;Layer_Color=9474304
;FILE_FORMAT=2:5
INCH,LZ
;TYPE=PLATED
T1F00S00C0.01200
T2F00S00C0.03543
T3F00S00C0.03937
T4F00S00C0.04331
T5F00S00C0.04803
T6F00S00C0.05118
T7F00S00C0.07205
T8F00S00C0.12500
T9F00S00C0.13583
%
T01
X0255Y002
X0245Y006
Y007
Y008
Y009
X0203415Y0081831
X0204Y0067
Y006
X02075Y00175
X02275
X0188Y0017
X016625Y0025
X0165Y0036
X01575Y00425
X0157Y008
X0166Y0073
X0133Y006
X00975Y00525
X00925Y00375
X01Y0032
X0125Y0025
X01Y007
X00925Y00875
X0045Y0075
Y00625
X0015
Y00725
X00125Y01125
Y01225
Y01325
Y01425
Y016
X0005Y0175
X0028838Y0174838
X005Y018
X0055Y0188
X006Y0185
X0046559Y0191441
X0034Y0203
X0045Y0156
X0056Y0152
X0055Y0137
X00775Y014
X0077Y0146
X00625Y01075
X00525
X00425
X0101Y0105
X01075Y00925
X01175
X0128Y0098
X0149Y0109
X01575Y0126
X0162047Y0127953
X0166Y0128
X017Y0126
X0171Y0134
X0168Y0137
X016Y014
X0156142Y0143
X01475Y0155
X015Y01625
X01525Y01675
X01575Y0165
X014Y016
X01Y0155
Y017
Y0129
X0082Y0143
X019Y0155
X022Y0145
X0235Y0175
X0216Y0195
X0196Y01
X0245
X0255Y01775
T02
X024Y001
X025
X023
X022
X021
X02
X018
X017
X016
X015
X014
X013
X0074Y02
X0084
X0094
X0104
X0114
X0124
X0134
X0144
X0154
X0164
X018
X019
X02
X021
X022
X023
X024
X025
T03
X0251929Y0061752
X0189213Y0171
X017
X0126279Y01175
X0251929Y0093248
T04
X008Y005
Y006
Y007
Y008
X007Y0075
Y0065
Y0055
Y0085
T05
X0025709Y0041417
Y0051417
Y0083583
Y0093583
T06
X0096752Y01175
T07
X0057008Y0037008
Y0097992
T08
X026Y003
X0055Y001
X006Y02
X026Y014
T09
X0045Y0045
Y009
M30
