G04 Layer_Color=16711935*
%FSLAX25Y25*%
%MOIN*%
G70*
G01*
G75*
%ADD55R,0.05800X0.07300*%
%ADD74C,0.13300*%
%ADD75C,0.06706*%
%ADD76R,0.06706X0.06706*%
%ADD77C,0.08674*%
%ADD78C,0.04737*%
%ADD79C,0.05918*%
%ADD80C,0.10367*%
%ADD81C,0.07493*%
%ADD82C,0.07965*%
%ADD83C,0.14383*%
%ADD84C,0.03300*%
%ADD85R,0.12611X0.04737*%
%ADD86R,0.32296X0.12611*%
%ADD87R,0.10052X0.13595*%
%ADD88R,0.04540X0.02178*%
%ADD89R,0.15210X0.11036*%
%ADD90R,0.14737X0.11036*%
D55*
X89500Y185000D02*
D03*
X80500D02*
D03*
X89500Y155000D02*
D03*
X80500D02*
D03*
X37000Y182500D02*
D03*
X28000D02*
D03*
D74*
X55000Y10000D02*
D03*
X260000Y30000D02*
D03*
Y140000D02*
D03*
X60000Y200000D02*
D03*
D75*
X180000D02*
D03*
X210000D02*
D03*
X240000D02*
D03*
X230000D02*
D03*
X220000D02*
D03*
X200000D02*
D03*
X190000D02*
D03*
X74000D02*
D03*
X84000D02*
D03*
X94000D02*
D03*
X124000D02*
D03*
X154000D02*
D03*
X144000D02*
D03*
X134000D02*
D03*
X114000D02*
D03*
X104000D02*
D03*
X180000Y10000D02*
D03*
X160000D02*
D03*
X150000D02*
D03*
X140000D02*
D03*
X170000D02*
D03*
X250000D02*
D03*
X230000D02*
D03*
X220000D02*
D03*
X210000D02*
D03*
X240000D02*
D03*
D76*
X250000Y200000D02*
D03*
X164000D02*
D03*
X130000Y10000D02*
D03*
X200000D02*
D03*
D77*
X189213Y171000D02*
D03*
X170000D02*
D03*
D78*
X251929Y61752D02*
D03*
Y93248D02*
D03*
X126279Y117500D02*
D03*
D79*
X96752D02*
D03*
D80*
X57008Y37008D02*
D03*
Y97992D02*
D03*
D81*
X80000Y50000D02*
D03*
X70000Y55000D02*
D03*
X80000Y60000D02*
D03*
X70000Y65000D02*
D03*
X80000Y70000D02*
D03*
X70000Y75000D02*
D03*
X80000Y80000D02*
D03*
X70000Y85000D02*
D03*
D82*
X25709Y93583D02*
D03*
Y83583D02*
D03*
Y51417D02*
D03*
Y41417D02*
D03*
D83*
X45000Y90000D02*
D03*
Y45000D02*
D03*
D84*
X12500Y160000D02*
D03*
X45000Y62500D02*
D03*
Y75000D02*
D03*
X15000Y62500D02*
D03*
Y72500D02*
D03*
X147500Y155000D02*
D03*
X190000D02*
D03*
X235000Y175000D02*
D03*
X100000Y170000D02*
D03*
X97500Y52500D02*
D03*
X92500Y37500D02*
D03*
Y87500D02*
D03*
X117500Y92500D02*
D03*
X107500D02*
D03*
X245000Y60000D02*
D03*
Y70000D02*
D03*
Y80000D02*
D03*
Y90000D02*
D03*
Y100000D02*
D03*
X62500Y107500D02*
D03*
X52500D02*
D03*
X42500D02*
D03*
X12500Y112500D02*
D03*
Y122500D02*
D03*
Y132500D02*
D03*
Y142500D02*
D03*
X157500Y126000D02*
D03*
Y42500D02*
D03*
X162047Y127953D02*
D03*
X166000Y128000D02*
D03*
Y73000D02*
D03*
X170000Y126000D02*
D03*
X77500Y140000D02*
D03*
X82000Y143000D02*
D03*
X77000Y146000D02*
D03*
X149000Y109000D02*
D03*
X140000Y160000D02*
D03*
X150000Y162500D02*
D03*
X157500Y165000D02*
D03*
X152500Y167500D02*
D03*
X100000Y32000D02*
D03*
X133000Y60000D02*
D03*
X100000Y70000D02*
D03*
X255000Y20000D02*
D03*
X227500Y17500D02*
D03*
X207500D02*
D03*
X188000Y17000D02*
D03*
X56000Y152000D02*
D03*
X34000Y203000D02*
D03*
X46559Y191441D02*
D03*
X196000Y100000D02*
D03*
X203415Y81831D02*
D03*
X171000Y134000D02*
D03*
X168000Y137000D02*
D03*
X156142Y143000D02*
D03*
X204000Y67000D02*
D03*
Y60000D02*
D03*
X160000Y140000D02*
D03*
X216000Y195000D02*
D03*
X165000Y36000D02*
D03*
X157000Y80000D02*
D03*
X128000Y98000D02*
D03*
X220000Y145000D02*
D03*
X101000Y105000D02*
D03*
X100000Y129000D02*
D03*
X55000Y137000D02*
D03*
X125000Y25000D02*
D03*
X5000Y175000D02*
D03*
X55000Y188000D02*
D03*
X50000Y180000D02*
D03*
X60000Y185000D02*
D03*
X255000Y177500D02*
D03*
X45000Y156000D02*
D03*
X166250Y25000D02*
D03*
X100000Y155000D02*
D03*
X28838Y174838D02*
D03*
D85*
X70000Y173937D02*
D03*
Y166063D02*
D03*
D86*
X97559Y170000D02*
D03*
D87*
X32500Y167500D02*
D03*
D88*
X24626Y162776D02*
D03*
Y165925D02*
D03*
Y169075D02*
D03*
Y172224D02*
D03*
X40374Y162776D02*
D03*
Y165925D02*
D03*
Y169075D02*
D03*
Y172224D02*
D03*
D89*
X142303Y117500D02*
D03*
D90*
X80098D02*
D03*
M02*
